<?xml version="1.0" encoding="UTF-8" standalone="no"?>
<!DOCTYPE svg PUBLIC "-//W3C//DTD SVG 1.1//EN"
 "http://www.w3.org/Graphics/SVG/1.1/DTD/svg11.dtd">
<!-- Generated by graphviz version 2.48.0 (20210717.2242)
 -->
<!-- Pages: 1 -->
<svg width="272pt" height="465pt"
 viewBox="0.00 0.00 271.84 465.00" xmlns="http://www.w3.org/2000/svg" xmlns:xlink="http://www.w3.org/1999/xlink">
<g id="graph0" class="graph" transform="scale(1 1) rotate(0) translate(4 461)">
<polygon fill="white" stroke="transparent" points="-4,4 -4,-461 267.84,-461 267.84,4 -4,4"/>
<!-- 140226729077344 -->
<g id="node1" class="node">
<title>140226729077344</title>
<ellipse fill="none" stroke="black" cx="157.44" cy="-192" rx="76.89" ry="18"/>
<text text-anchor="middle" x="157.44" y="-188.3" font-family="Times,serif" font-size="14.00">load_and_split</text>
</g>
<!-- 140226729077728 -->
<g id="node2" class="node">
<title>140226729077728</title>
<polygon fill="none" stroke="black" points="242.44,-123 72.44,-123 72.44,-87 242.44,-87 242.44,-123"/>
<text text-anchor="middle" x="157.44" y="-101.3" font-family="Times,serif" font-size="14.00">write_to_disk &lt;map&gt;</text>
</g>
<!-- 140226729077344&#45;&gt;140226729077728 -->
<g id="edge6" class="edge">
<title>140226729077344&#45;&gt;140226729077728</title>
<path fill="none" stroke="black" stroke-dasharray="5,2" d="M157.44,-173.8C157.44,-162.16 157.44,-146.55 157.44,-133.24"/>
<polygon fill="black" stroke="black" points="160.94,-133.18 157.44,-123.18 153.94,-133.18 160.94,-133.18"/>
<text text-anchor="middle" x="179.44" y="-144.8" font-family="Times,serif" font-size="14.00">image</text>
</g>
<!-- 140226729078160 -->
<g id="node7" class="node">
<title>140226729078160</title>
<ellipse fill="none" stroke="black" cx="157.44" cy="-18" rx="79.89" ry="18"/>
<text text-anchor="middle" x="157.44" y="-14.3" font-family="Times,serif" font-size="14.00">combine_to_gif</text>
</g>
<!-- 140226729077728&#45;&gt;140226729078160 -->
<g id="edge7" class="edge">
<title>140226729077728&#45;&gt;140226729078160</title>
<path fill="none" stroke="black" d="M157.44,-86.8C157.44,-75.16 157.44,-59.55 157.44,-46.24"/>
<polygon fill="black" stroke="black" points="160.94,-46.18 157.44,-36.18 153.94,-46.18 160.94,-46.18"/>
<text text-anchor="middle" x="202.44" y="-57.8" font-family="Times,serif" font-size="14.00">image_bytes</text>
</g>
<!-- 140226729076528 -->
<g id="node3" class="node">
<title>140226729076528</title>
<ellipse fill="none" stroke="black" cx="108.44" cy="-352" rx="52.79" ry="18"/>
<text text-anchor="middle" x="108.44" y="-348.3" font-family="Times,serif" font-size="14.00">curl_cmd</text>
</g>
<!-- 140226729076624 -->
<g id="node5" class="node">
<title>140226729076624</title>
<ellipse fill="none" stroke="black" cx="114.44" cy="-265" rx="52.79" ry="18"/>
<text text-anchor="middle" x="114.44" y="-261.3" font-family="Times,serif" font-size="14.00">curl_task</text>
</g>
<!-- 140226729076528&#45;&gt;140226729076624 -->
<g id="edge4" class="edge">
<title>140226729076528&#45;&gt;140226729076624</title>
<path fill="none" stroke="black" d="M108.27,-333.85C108.3,-324.19 108.56,-311.9 109.44,-301 109.65,-298.43 109.93,-295.76 110.24,-293.1"/>
<polygon fill="black" stroke="black" points="113.73,-293.42 111.59,-283.04 106.79,-292.49 113.73,-293.42"/>
<text text-anchor="middle" x="144.44" y="-304.8" font-family="Times,serif" font-size="14.00">command</text>
</g>
<!-- 140226729075568 -->
<g id="node4" class="node">
<title>140226729075568</title>
<ellipse fill="none" stroke="black" cx="60.44" cy="-439" rx="60.39" ry="18"/>
<text text-anchor="middle" x="60.44" y="-435.3" font-family="Times,serif" font-size="14.00">DATA_URL</text>
</g>
<!-- 140226729075568&#45;&gt;140226729076528 -->
<g id="edge1" class="edge">
<title>140226729075568&#45;&gt;140226729076528</title>
<path fill="none" stroke="black" d="M66.87,-420.87C70.84,-410.99 76.34,-398.49 82.44,-388 84.44,-384.56 86.71,-381.07 89.06,-377.68"/>
<polygon fill="black" stroke="black" points="91.91,-379.71 94.95,-369.56 86.24,-375.6 91.91,-379.71"/>
<text text-anchor="middle" x="92.94" y="-391.8" font-family="Times,serif" font-size="14.00">url</text>
</g>
<!-- 140226729076624&#45;&gt;140226729077344 -->
<g id="edge2" class="edge">
<title>140226729076624&#45;&gt;140226729077344</title>
<path fill="none" stroke="black" d="M124.64,-247.17C129.75,-238.72 136.07,-228.29 141.79,-218.85"/>
<polygon fill="black" stroke="black" points="144.84,-220.57 147.03,-210.2 138.85,-216.94 144.84,-220.57"/>
</g>
<!-- 140226729075664 -->
<g id="node6" class="node">
<title>140226729075664</title>
<ellipse fill="none" stroke="black" cx="201.44" cy="-439" rx="62.29" ry="18"/>
<text text-anchor="middle" x="201.44" y="-435.3" font-family="Times,serif" font-size="14.00">DATA_FILE</text>
</g>
<!-- 140226729075664&#45;&gt;140226729077344 -->
<g id="edge5" class="edge">
<title>140226729075664&#45;&gt;140226729077344</title>
<path fill="none" stroke="black" d="M200.41,-420.92C198.1,-387.25 191.5,-310.11 176.44,-247 174.29,-237.97 171.18,-228.33 168.09,-219.74"/>
<polygon fill="black" stroke="black" points="171.32,-218.38 164.54,-210.23 164.76,-220.83 171.32,-218.38"/>
<text text-anchor="middle" x="210.94" y="-304.8" font-family="Times,serif" font-size="14.00">fname</text>
</g>
<!-- 140226729075664&#45;&gt;140226729076528 -->
<g id="edge3" class="edge">
<title>140226729075664&#45;&gt;140226729076528</title>
<path fill="none" stroke="black" d="M170.87,-423.25C161.15,-417.71 150.78,-410.83 142.44,-403 135.03,-396.03 128.36,-387.17 122.92,-378.85"/>
<polygon fill="black" stroke="black" points="125.78,-376.81 117.54,-370.15 119.83,-380.49 125.78,-376.81"/>
<text text-anchor="middle" x="164.94" y="-391.8" font-family="Times,serif" font-size="14.00">fname</text>
</g>
</g>
</svg>
