<?xml version="1.0" encoding="UTF-8" standalone="no"?>
<!DOCTYPE svg PUBLIC "-//W3C//DTD SVG 1.1//EN"
 "http://www.w3.org/Graphics/SVG/1.1/DTD/svg11.dtd">
<!-- Generated by graphviz version 2.42.3 (20191010.1750)
 -->
<!-- Title: %3 Pages: 1 -->
<svg width="256pt" height="465pt"
 viewBox="0.00 0.00 256.04 465.00" xmlns="http://www.w3.org/2000/svg" xmlns:xlink="http://www.w3.org/1999/xlink">
<g id="graph0" class="graph" transform="scale(1 1) rotate(0) translate(4 461)">
<title>%3</title>
<polygon fill="white" stroke="transparent" points="-4,4 -4,-461 252.04,-461 252.04,4 -4,4"/>
<!-- 140169807206336 -->
<g id="node1" class="node">
<title>140169807206336</title>
<ellipse fill="none" stroke="black" cx="69.84" cy="-192" rx="62.29" ry="18"/>
<text text-anchor="middle" x="69.84" y="-188.3" font-family="Times,serif" font-size="14.00">load_and_split</text>
</g>
<!-- 140169807206672 -->
<g id="node6" class="node">
<title>140169807206672</title>
<polygon fill="none" stroke="black" points="137.34,-123 2.34,-123 2.34,-87 137.34,-87 137.34,-123"/>
<text text-anchor="middle" x="69.84" y="-101.3" font-family="Times,serif" font-size="14.00">write_to_disk &lt;map&gt;</text>
</g>
<!-- 140169807206336&#45;&gt;140169807206672 -->
<g id="edge6" class="edge">
<title>140169807206336&#45;&gt;140169807206672</title>
<path fill="none" stroke="black" stroke-dasharray="5,2" d="M69.84,-173.8C69.84,-162.16 69.84,-146.55 69.84,-133.24"/>
<polygon fill="black" stroke="black" points="73.34,-133.18 69.84,-123.18 66.34,-133.18 73.34,-133.18"/>
<text text-anchor="middle" x="86.84" y="-144.8" font-family="Times,serif" font-size="14.00">image</text>
</g>
<!-- 140169807204560 -->
<g id="node2" class="node">
<title>140169807204560</title>
<ellipse fill="none" stroke="black" cx="129.84" cy="-352" rx="44.39" ry="18"/>
<text text-anchor="middle" x="129.84" y="-348.3" font-family="Times,serif" font-size="14.00">curl_cmd</text>
</g>
<!-- 140169807204848 -->
<g id="node4" class="node">
<title>140169807204848</title>
<ellipse fill="none" stroke="black" cx="128.84" cy="-265" rx="42.79" ry="18"/>
<text text-anchor="middle" x="128.84" y="-261.3" font-family="Times,serif" font-size="14.00">curl_task</text>
</g>
<!-- 140169807204560&#45;&gt;140169807204848 -->
<g id="edge5" class="edge">
<title>140169807204560&#45;&gt;140169807204848</title>
<path fill="none" stroke="black" d="M129.64,-333.8C129.51,-322.16 129.32,-306.55 129.17,-293.24"/>
<polygon fill="black" stroke="black" points="132.66,-293.13 129.05,-283.18 125.66,-293.22 132.66,-293.13"/>
<text text-anchor="middle" x="157.34" y="-304.8" font-family="Times,serif" font-size="14.00">command</text>
</g>
<!-- 140169807133712 -->
<g id="node3" class="node">
<title>140169807133712</title>
<ellipse fill="none" stroke="black" cx="57.84" cy="-439" rx="57.69" ry="18"/>
<text text-anchor="middle" x="57.84" y="-435.3" font-family="Times,serif" font-size="14.00">DATA_FILE</text>
</g>
<!-- 140169807133712&#45;&gt;140169807206336 -->
<g id="edge1" class="edge">
<title>140169807133712&#45;&gt;140169807206336</title>
<path fill="none" stroke="black" d="M58.69,-420.77C60.74,-378.86 66.01,-271.31 68.5,-220.44"/>
<polygon fill="black" stroke="black" points="72.01,-220.37 69,-210.21 65.02,-220.03 72.01,-220.37"/>
<text text-anchor="middle" x="82.34" y="-304.8" font-family="Times,serif" font-size="14.00">fname</text>
</g>
<!-- 140169807133712&#45;&gt;140169807204560 -->
<g id="edge4" class="edge">
<title>140169807133712&#45;&gt;140169807204560</title>
<path fill="none" stroke="black" d="M72.07,-421.21C82.76,-408.59 97.55,-391.13 109.49,-377.03"/>
<polygon fill="black" stroke="black" points="112.35,-379.07 116.14,-369.18 107,-374.55 112.35,-379.07"/>
<text text-anchor="middle" x="116.34" y="-391.8" font-family="Times,serif" font-size="14.00">fname</text>
</g>
<!-- 140169807204848&#45;&gt;140169807206336 -->
<g id="edge7" class="edge">
<title>140169807204848&#45;&gt;140169807206336</title>
<path fill="none" stroke="black" d="M115.46,-247.89C108.13,-239.07 98.88,-227.94 90.63,-218.02"/>
<polygon fill="black" stroke="black" points="93.09,-215.49 84,-210.04 87.7,-219.97 93.09,-215.49"/>
</g>
<!-- 140169807133616 -->
<g id="node5" class="node">
<title>140169807133616</title>
<ellipse fill="none" stroke="black" cx="190.84" cy="-439" rx="57.39" ry="18"/>
<text text-anchor="middle" x="190.84" y="-435.3" font-family="Times,serif" font-size="14.00">DATA_URL</text>
</g>
<!-- 140169807133616&#45;&gt;140169807204560 -->
<g id="edge3" class="edge">
<title>140169807133616&#45;&gt;140169807204560</title>
<path fill="none" stroke="black" d="M178.79,-421.21C169.88,-408.79 157.6,-391.67 147.57,-377.7"/>
<polygon fill="black" stroke="black" points="150.34,-375.55 141.66,-369.47 144.65,-379.63 150.34,-375.55"/>
<text text-anchor="middle" x="172.84" y="-391.8" font-family="Times,serif" font-size="14.00">url</text>
</g>
<!-- 140169807207152 -->
<g id="node7" class="node">
<title>140169807207152</title>
<ellipse fill="none" stroke="black" cx="69.84" cy="-18" rx="66.89" ry="18"/>
<text text-anchor="middle" x="69.84" y="-14.3" font-family="Times,serif" font-size="14.00">combine_to_gif</text>
</g>
<!-- 140169807206672&#45;&gt;140169807207152 -->
<g id="edge2" class="edge">
<title>140169807206672&#45;&gt;140169807207152</title>
<path fill="none" stroke="black" d="M69.84,-86.8C69.84,-75.16 69.84,-59.55 69.84,-46.24"/>
<polygon fill="black" stroke="black" points="73.34,-46.18 69.84,-36.18 66.34,-46.18 73.34,-46.18"/>
<text text-anchor="middle" x="104.84" y="-57.8" font-family="Times,serif" font-size="14.00">image_bytes</text>
</g>
</g>
</svg>
