<?xml version="1.0" encoding="UTF-8" standalone="no"?>
<!DOCTYPE svg PUBLIC "-//W3C//DTD SVG 1.1//EN"
 "http://www.w3.org/Graphics/SVG/1.1/DTD/svg11.dtd">
<!-- Generated by graphviz version 2.40.1 (20161225.0304)
 -->
<!-- Title: %3 Pages: 1 -->
<svg width="293pt" height="465pt"
 viewBox="0.00 0.00 292.54 465.00" xmlns="http://www.w3.org/2000/svg" xmlns:xlink="http://www.w3.org/1999/xlink">
<g id="graph0" class="graph" transform="scale(1 1) rotate(0) translate(4 461)">
<title>%3</title>
<polygon fill="#ffffff" stroke="transparent" points="-4,4 -4,-461 288.5444,-461 288.5444,4 -4,4"/>
<!-- 140658367240512 -->
<g id="node1" class="node">
<title>140658367240512</title>
<ellipse fill="none" stroke="#000000" cx="156.5" cy="-352" rx="53.8905" ry="18"/>
<text text-anchor="middle" x="156.5" y="-348.3" font-family="Times,serif" font-size="14.00" fill="#000000">curl_cmd</text>
</g>
<!-- 140658367013328 -->
<g id="node5" class="node">
<title>140658367013328</title>
<ellipse fill="none" stroke="#000000" cx="156.5" cy="-265" rx="53.8905" ry="18"/>
<text text-anchor="middle" x="156.5" y="-261.3" font-family="Times,serif" font-size="14.00" fill="#000000">curl_task</text>
</g>
<!-- 140658367240512&#45;&gt;140658367013328 -->
<g id="edge6" class="edge">
<title>140658367240512&#45;&gt;140658367013328</title>
<path fill="none" stroke="#000000" d="M156.5,-333.9735C156.5,-322.1918 156.5,-306.5607 156.5,-293.1581"/>
<polygon fill="#000000" stroke="#000000" points="160.0001,-293.0033 156.5,-283.0034 153.0001,-293.0034 160.0001,-293.0033"/>
<text text-anchor="middle" x="191.5" y="-304.8" font-family="Times,serif" font-size="14.00" fill="#000000">command</text>
</g>
<!-- 140658367013608 -->
<g id="node2" class="node">
<title>140658367013608</title>
<ellipse fill="none" stroke="#000000" cx="86.5" cy="-192" rx="77.1866" ry="18"/>
<text text-anchor="middle" x="86.5" y="-188.3" font-family="Times,serif" font-size="14.00" fill="#000000">load_and_split</text>
</g>
<!-- 140658367013720 -->
<g id="node6" class="node">
<title>140658367013720</title>
<polygon fill="none" stroke="#000000" points="173,-123 0,-123 0,-87 173,-87 173,-123"/>
<text text-anchor="middle" x="86.5" y="-101.3" font-family="Times,serif" font-size="14.00" fill="#000000">write_to_disk &lt;map&gt;</text>
</g>
<!-- 140658367013608&#45;&gt;140658367013720 -->
<g id="edge2" class="edge">
<title>140658367013608&#45;&gt;140658367013720</title>
<path fill="none" stroke="#000000" stroke-dasharray="5,2" d="M86.5,-173.9735C86.5,-162.1918 86.5,-146.5607 86.5,-133.1581"/>
<polygon fill="#000000" stroke="#000000" points="90.0001,-133.0033 86.5,-123.0034 83.0001,-133.0034 90.0001,-133.0033"/>
<text text-anchor="middle" x="108.5" y="-144.8" font-family="Times,serif" font-size="14.00" fill="#000000">image</text>
</g>
<!-- 140658367013832 -->
<g id="node3" class="node">
<title>140658367013832</title>
<ellipse fill="none" stroke="#000000" cx="86.5" cy="-18" rx="81.4863" ry="18"/>
<text text-anchor="middle" x="86.5" y="-14.3" font-family="Times,serif" font-size="14.00" fill="#000000">combine_to_gif</text>
</g>
<!-- 140658366942960 -->
<g id="node4" class="node">
<title>140658366942960</title>
<ellipse fill="none" stroke="#000000" cx="74.5" cy="-439" rx="65.7887" ry="18"/>
<text text-anchor="middle" x="74.5" y="-435.3" font-family="Times,serif" font-size="14.00" fill="#000000">DATA_FILE</text>
</g>
<!-- 140658366942960&#45;&gt;140658367240512 -->
<g id="edge3" class="edge">
<title>140658366942960&#45;&gt;140658367240512</title>
<path fill="none" stroke="#000000" d="M91.0939,-421.3943C103.1766,-408.5748 119.7055,-391.038 133.1239,-376.8014"/>
<polygon fill="#000000" stroke="#000000" points="135.8987,-378.9604 140.2106,-369.2827 130.8047,-374.1592 135.8987,-378.9604"/>
<text text-anchor="middle" x="143" y="-391.8" font-family="Times,serif" font-size="14.00" fill="#000000">fname</text>
</g>
<!-- 140658366942960&#45;&gt;140658367013608 -->
<g id="edge4" class="edge">
<title>140658366942960&#45;&gt;140658367013608</title>
<path fill="none" stroke="#000000" d="M75.3824,-420.8375C77.4542,-378.1929 82.642,-271.4108 85.1288,-220.2247"/>
<polygon fill="#000000" stroke="#000000" points="88.6268,-220.3472 85.6163,-210.1891 81.6351,-220.0075 88.6268,-220.3472"/>
<text text-anchor="middle" x="104" y="-304.8" font-family="Times,serif" font-size="14.00" fill="#000000">fname</text>
</g>
<!-- 140658367013328&#45;&gt;140658367013608 -->
<g id="edge1" class="edge">
<title>140658367013328&#45;&gt;140658367013608</title>
<path fill="none" stroke="#000000" d="M139.911,-247.7C131.1479,-238.5613 120.2322,-227.1778 110.5569,-217.0879"/>
<polygon fill="#000000" stroke="#000000" points="112.9037,-214.4783 103.4562,-209.6829 107.8512,-219.3232 112.9037,-214.4783"/>
</g>
<!-- 140658367013720&#45;&gt;140658367013832 -->
<g id="edge7" class="edge">
<title>140658367013720&#45;&gt;140658367013832</title>
<path fill="none" stroke="#000000" d="M86.5,-86.9735C86.5,-75.1918 86.5,-59.5607 86.5,-46.1581"/>
<polygon fill="#000000" stroke="#000000" points="90.0001,-46.0033 86.5,-36.0034 83.0001,-46.0034 90.0001,-46.0033"/>
<text text-anchor="middle" x="132" y="-57.8" font-family="Times,serif" font-size="14.00" fill="#000000">image_bytes</text>
</g>
<!-- 140658366942904 -->
<g id="node7" class="node">
<title>140658366942904</title>
<ellipse fill="none" stroke="#000000" cx="221.5" cy="-439" rx="63.0888" ry="18"/>
<text text-anchor="middle" x="221.5" y="-435.3" font-family="Times,serif" font-size="14.00" fill="#000000">DATA_URL</text>
</g>
<!-- 140658366942904&#45;&gt;140658367240512 -->
<g id="edge5" class="edge">
<title>140658366942904&#45;&gt;140658367240512</title>
<path fill="none" stroke="#000000" d="M208.3463,-421.3943C199.0073,-408.8944 186.3175,-391.9096 175.8299,-377.8724"/>
<polygon fill="#000000" stroke="#000000" points="178.4233,-375.4958 169.6342,-369.5796 172.8156,-379.6855 178.4233,-375.4958"/>
<text text-anchor="middle" x="204" y="-391.8" font-family="Times,serif" font-size="14.00" fill="#000000">url</text>
</g>
</g>
</svg>
