<?xml version="1.0" encoding="UTF-8" standalone="no"?>
<!DOCTYPE svg PUBLIC "-//W3C//DTD SVG 1.1//EN"
 "http://www.w3.org/Graphics/SVG/1.1/DTD/svg11.dtd">
<!-- Generated by graphviz version 3.0.0 (20220315.2325)
 -->
<!-- Pages: 1 -->
<svg width="282pt" height="465pt"
 viewBox="0.00 0.00 282.44 465.00" xmlns="http://www.w3.org/2000/svg" xmlns:xlink="http://www.w3.org/1999/xlink">
<g id="graph0" class="graph" transform="scale(1 1) rotate(0) translate(4 461)">
<polygon fill="white" stroke="transparent" points="-4,4 -4,-461 278.44,-461 278.44,4 -4,4"/>
<!-- 140100702673504 -->
<g id="node1" class="node">
<title>140100702673504</title>
<ellipse fill="none" stroke="black" cx="154" cy="-352" rx="52.79" ry="18"/>
<text text-anchor="middle" x="154" y="-348.3" font-family="Times,serif" font-size="14.00">curl_cmd</text>
</g>
<!-- 140100702673888 -->
<g id="node3" class="node">
<title>140100702673888</title>
<ellipse fill="none" stroke="black" cx="154" cy="-265" rx="52.79" ry="18"/>
<text text-anchor="middle" x="154" y="-261.3" font-family="Times,serif" font-size="14.00">curl_task</text>
</g>
<!-- 140100702673504&#45;&gt;140100702673888 -->
<g id="edge1" class="edge">
<title>140100702673504&#45;&gt;140100702673888</title>
<path fill="none" stroke="black" d="M154,-333.8C154,-322.16 154,-306.55 154,-293.24"/>
<polygon fill="black" stroke="black" points="157.5,-293.18 154,-283.18 150.5,-293.18 157.5,-293.18"/>
<text text-anchor="middle" x="189" y="-304.8" font-family="Times,serif" font-size="14.00">command</text>
</g>
<!-- 140100702672160 -->
<g id="node2" class="node">
<title>140100702672160</title>
<ellipse fill="none" stroke="black" cx="85" cy="-192" rx="76.89" ry="18"/>
<text text-anchor="middle" x="85" y="-188.3" font-family="Times,serif" font-size="14.00">load_and_split</text>
</g>
<!-- 140100702674416 -->
<g id="node7" class="node">
<title>140100702674416</title>
<polygon fill="none" stroke="black" points="170,-123 0,-123 0,-87 170,-87 170,-123"/>
<text text-anchor="middle" x="85" y="-101.3" font-family="Times,serif" font-size="14.00">write_to_disk &lt;map&gt;</text>
</g>
<!-- 140100702672160&#45;&gt;140100702674416 -->
<g id="edge3" class="edge">
<title>140100702672160&#45;&gt;140100702674416</title>
<path fill="none" stroke="black" stroke-dasharray="5,2" d="M85,-173.8C85,-162.16 85,-146.55 85,-133.24"/>
<polygon fill="black" stroke="black" points="88.5,-133.18 85,-123.18 81.5,-133.18 88.5,-133.18"/>
<text text-anchor="middle" x="107" y="-144.8" font-family="Times,serif" font-size="14.00">image</text>
</g>
<!-- 140100702673888&#45;&gt;140100702672160 -->
<g id="edge5" class="edge">
<title>140100702673888&#45;&gt;140100702672160</title>
<path fill="none" stroke="black" d="M138,-247.53C129.24,-238.52 118.23,-227.19 108.51,-217.19"/>
<polygon fill="black" stroke="black" points="110.88,-214.6 101.4,-209.87 105.86,-219.48 110.88,-214.6"/>
</g>
<!-- 140100434329760 -->
<g id="node4" class="node">
<title>140100434329760</title>
<ellipse fill="none" stroke="black" cx="85" cy="-18" rx="79.89" ry="18"/>
<text text-anchor="middle" x="85" y="-14.3" font-family="Times,serif" font-size="14.00">combine_to_gif</text>
</g>
<!-- 140100434811152 -->
<g id="node5" class="node">
<title>140100434811152</title>
<ellipse fill="none" stroke="black" cx="73" cy="-439" rx="62.29" ry="18"/>
<text text-anchor="middle" x="73" y="-435.3" font-family="Times,serif" font-size="14.00">DATA_FILE</text>
</g>
<!-- 140100434811152&#45;&gt;140100702673504 -->
<g id="edge4" class="edge">
<title>140100434811152&#45;&gt;140100702673504</title>
<path fill="none" stroke="black" d="M89,-421.21C101.06,-408.55 117.76,-391.03 131.22,-376.91"/>
<polygon fill="black" stroke="black" points="133.94,-379.12 138.31,-369.47 128.87,-374.29 133.94,-379.12"/>
<text text-anchor="middle" x="141.5" y="-391.8" font-family="Times,serif" font-size="14.00">fname</text>
</g>
<!-- 140100434811152&#45;&gt;140100702672160 -->
<g id="edge2" class="edge">
<title>140100434811152&#45;&gt;140100702672160</title>
<path fill="none" stroke="black" d="M73.84,-420.77C75.9,-378.86 81.16,-271.31 83.66,-220.44"/>
<polygon fill="black" stroke="black" points="87.16,-220.37 84.16,-210.21 80.17,-220.03 87.16,-220.37"/>
<text text-anchor="middle" x="102.5" y="-304.8" font-family="Times,serif" font-size="14.00">fname</text>
</g>
<!-- 140100434810960 -->
<g id="node6" class="node">
<title>140100434810960</title>
<ellipse fill="none" stroke="black" cx="214" cy="-439" rx="60.39" ry="18"/>
<text text-anchor="middle" x="214" y="-435.3" font-family="Times,serif" font-size="14.00">DATA_URL</text>
</g>
<!-- 140100434810960&#45;&gt;140100702673504 -->
<g id="edge6" class="edge">
<title>140100434810960&#45;&gt;140100702673504</title>
<path fill="none" stroke="black" d="M202.15,-421.21C193.44,-408.87 181.45,-391.89 171.62,-377.97"/>
<polygon fill="black" stroke="black" points="174.46,-375.91 165.83,-369.76 168.74,-379.95 174.46,-375.91"/>
<text text-anchor="middle" x="198.5" y="-391.8" font-family="Times,serif" font-size="14.00">url</text>
</g>
<!-- 140100702674416&#45;&gt;140100434329760 -->
<g id="edge7" class="edge">
<title>140100702674416&#45;&gt;140100434329760</title>
<path fill="none" stroke="black" d="M85,-86.8C85,-75.16 85,-59.55 85,-46.24"/>
<polygon fill="black" stroke="black" points="88.5,-46.18 85,-36.18 81.5,-46.18 88.5,-46.18"/>
<text text-anchor="middle" x="130" y="-57.8" font-family="Times,serif" font-size="14.00">image_bytes</text>
</g>
</g>
</svg>
