<?xml version="1.0" encoding="UTF-8" standalone="no"?>
<!DOCTYPE svg PUBLIC "-//W3C//DTD SVG 1.1//EN"
 "http://www.w3.org/Graphics/SVG/1.1/DTD/svg11.dtd">
<!-- Generated by graphviz version 2.40.1 (20161225.0304)
 -->
<!-- Title: %3 Pages: 1 -->
<svg width="284pt" height="465pt"
 viewBox="0.00 0.00 283.69 465.00" xmlns="http://www.w3.org/2000/svg" xmlns:xlink="http://www.w3.org/1999/xlink">
<g id="graph0" class="graph" transform="scale(1 1) rotate(0) translate(4 461)">
<title>%3</title>
<polygon fill="#ffffff" stroke="transparent" points="-4,4 -4,-461 279.6886,-461 279.6886,4 -4,4"/>
<!-- 140189678492136 -->
<g id="node1" class="node">
<title>140189678492136</title>
<ellipse fill="none" stroke="#000000" cx="91.6442" cy="-192" rx="77.1866" ry="18"/>
<text text-anchor="middle" x="91.6442" y="-188.3" font-family="Times,serif" font-size="14.00" fill="#000000">load_and_split</text>
</g>
<!-- 140189678490792 -->
<g id="node2" class="node">
<title>140189678490792</title>
<polygon fill="none" stroke="#000000" points="178.1442,-123 5.1442,-123 5.1442,-87 178.1442,-87 178.1442,-123"/>
<text text-anchor="middle" x="91.6442" y="-101.3" font-family="Times,serif" font-size="14.00" fill="#000000">write_to_disk &lt;map&gt;</text>
</g>
<!-- 140189678492136&#45;&gt;140189678490792 -->
<g id="edge4" class="edge">
<title>140189678492136&#45;&gt;140189678490792</title>
<path fill="none" stroke="#000000" stroke-dasharray="5,2" d="M91.6442,-173.9735C91.6442,-162.1918 91.6442,-146.5607 91.6442,-133.1581"/>
<polygon fill="#000000" stroke="#000000" points="95.1443,-133.0033 91.6442,-123.0034 88.1443,-133.0034 95.1443,-133.0033"/>
<text text-anchor="middle" x="113.6442" y="-144.8" font-family="Times,serif" font-size="14.00" fill="#000000">image</text>
</g>
<!-- 140189351028328 -->
<g id="node3" class="node">
<title>140189351028328</title>
<ellipse fill="none" stroke="#000000" cx="91.6442" cy="-18" rx="81.4863" ry="18"/>
<text text-anchor="middle" x="91.6442" y="-14.3" font-family="Times,serif" font-size="14.00" fill="#000000">combine_to_gif</text>
</g>
<!-- 140189678490792&#45;&gt;140189351028328 -->
<g id="edge6" class="edge">
<title>140189678490792&#45;&gt;140189351028328</title>
<path fill="none" stroke="#000000" d="M91.6442,-86.9735C91.6442,-75.1918 91.6442,-59.5607 91.6442,-46.1581"/>
<polygon fill="#000000" stroke="#000000" points="95.1443,-46.0033 91.6442,-36.0034 88.1443,-46.0034 95.1443,-46.0033"/>
<text text-anchor="middle" x="137.1442" y="-57.8" font-family="Times,serif" font-size="14.00" fill="#000000">image_bytes</text>
</g>
<!-- 140189351028272 -->
<g id="node4" class="node">
<title>140189351028272</title>
<ellipse fill="none" stroke="#000000" cx="147.6442" cy="-352" rx="53.8905" ry="18"/>
<text text-anchor="middle" x="147.6442" y="-348.3" font-family="Times,serif" font-size="14.00" fill="#000000">curl_cmd</text>
</g>
<!-- 140189678490736 -->
<g id="node5" class="node">
<title>140189678490736</title>
<ellipse fill="none" stroke="#000000" cx="147.6442" cy="-265" rx="53.8905" ry="18"/>
<text text-anchor="middle" x="147.6442" y="-261.3" font-family="Times,serif" font-size="14.00" fill="#000000">curl_task</text>
</g>
<!-- 140189351028272&#45;&gt;140189678490736 -->
<g id="edge7" class="edge">
<title>140189351028272&#45;&gt;140189678490736</title>
<path fill="none" stroke="#000000" d="M147.6442,-333.9735C147.6442,-322.1918 147.6442,-306.5607 147.6442,-293.1581"/>
<polygon fill="#000000" stroke="#000000" points="151.1443,-293.0033 147.6442,-283.0034 144.1443,-293.0034 151.1443,-293.0033"/>
<text text-anchor="middle" x="182.6442" y="-304.8" font-family="Times,serif" font-size="14.00" fill="#000000">command</text>
</g>
<!-- 140189678490736&#45;&gt;140189678492136 -->
<g id="edge1" class="edge">
<title>140189678490736&#45;&gt;140189678492136</title>
<path fill="none" stroke="#000000" d="M134.0881,-247.3287C127.3284,-238.5169 119.022,-227.689 111.5552,-217.9554"/>
<polygon fill="#000000" stroke="#000000" points="114.1331,-215.5656 105.2695,-209.7615 108.5791,-219.8262 114.1331,-215.5656"/>
</g>
<!-- 140189351027600 -->
<g id="node6" class="node">
<title>140189351027600</title>
<ellipse fill="none" stroke="#000000" cx="65.6442" cy="-439" rx="65.7887" ry="18"/>
<text text-anchor="middle" x="65.6442" y="-435.3" font-family="Times,serif" font-size="14.00" fill="#000000">DATA_FILE</text>
</g>
<!-- 140189351027600&#45;&gt;140189678492136 -->
<g id="edge5" class="edge">
<title>140189351027600&#45;&gt;140189678492136</title>
<path fill="none" stroke="#000000" d="M67.2578,-420.9822C70.3431,-386.9526 77.4169,-310.9052 84.6442,-247 85.6285,-238.2962 86.7976,-228.8305 87.8956,-220.2445"/>
<polygon fill="#000000" stroke="#000000" points="91.3677,-220.685 89.1826,-210.3179 84.4258,-219.7849 91.3677,-220.685"/>
<text text-anchor="middle" x="102.1442" y="-304.8" font-family="Times,serif" font-size="14.00" fill="#000000">fname</text>
</g>
<!-- 140189351027600&#45;&gt;140189351028272 -->
<g id="edge3" class="edge">
<title>140189351027600&#45;&gt;140189351028272</title>
<path fill="none" stroke="#000000" d="M82.2381,-421.3943C94.3208,-408.5748 110.8497,-391.038 124.2681,-376.8014"/>
<polygon fill="#000000" stroke="#000000" points="127.0429,-378.9604 131.3548,-369.2827 121.9489,-374.1592 127.0429,-378.9604"/>
<text text-anchor="middle" x="134.1442" y="-391.8" font-family="Times,serif" font-size="14.00" fill="#000000">fname</text>
</g>
<!-- 140189351027544 -->
<g id="node7" class="node">
<title>140189351027544</title>
<ellipse fill="none" stroke="#000000" cx="212.6442" cy="-439" rx="63.0888" ry="18"/>
<text text-anchor="middle" x="212.6442" y="-435.3" font-family="Times,serif" font-size="14.00" fill="#000000">DATA_URL</text>
</g>
<!-- 140189351027544&#45;&gt;140189351028272 -->
<g id="edge2" class="edge">
<title>140189351027544&#45;&gt;140189351028272</title>
<path fill="none" stroke="#000000" d="M199.4905,-421.3943C190.1515,-408.8944 177.4617,-391.9096 166.9741,-377.8724"/>
<polygon fill="#000000" stroke="#000000" points="169.5675,-375.4958 160.7783,-369.5796 163.9598,-379.6855 169.5675,-375.4958"/>
<text text-anchor="middle" x="195.1442" y="-391.8" font-family="Times,serif" font-size="14.00" fill="#000000">url</text>
</g>
</g>
</svg>
