<?xml version="1.0" encoding="UTF-8" standalone="no"?>
<!DOCTYPE svg PUBLIC "-//W3C//DTD SVG 1.1//EN"
 "http://www.w3.org/Graphics/SVG/1.1/DTD/svg11.dtd">
<!-- Generated by graphviz version 2.42.3 (20191010.1750)
 -->
<!-- Title: %3 Pages: 1 -->
<svg width="293pt" height="465pt"
 viewBox="0.00 0.00 292.54 465.00" xmlns="http://www.w3.org/2000/svg" xmlns:xlink="http://www.w3.org/1999/xlink">
<g id="graph0" class="graph" transform="scale(1 1) rotate(0) translate(4 461)">
<title>%3</title>
<polygon fill="white" stroke="transparent" points="-4,4 -4,-461 288.54,-461 288.54,4 -4,4"/>
<!-- 140639277720144 -->
<g id="node1" class="node">
<title>140639277720144</title>
<ellipse fill="none" stroke="black" cx="156.5" cy="-352" rx="53.89" ry="18"/>
<text text-anchor="middle" x="156.5" y="-348.3" font-family="Times,serif" font-size="14.00">curl_cmd</text>
</g>
<!-- 140639277720336 -->
<g id="node4" class="node">
<title>140639277720336</title>
<ellipse fill="none" stroke="black" cx="156.5" cy="-265" rx="53.89" ry="18"/>
<text text-anchor="middle" x="156.5" y="-261.3" font-family="Times,serif" font-size="14.00">curl_task</text>
</g>
<!-- 140639277720144&#45;&gt;140639277720336 -->
<g id="edge1" class="edge">
<title>140639277720144&#45;&gt;140639277720336</title>
<path fill="none" stroke="black" d="M156.5,-333.8C156.5,-322.16 156.5,-306.55 156.5,-293.24"/>
<polygon fill="black" stroke="black" points="160,-293.18 156.5,-283.18 153,-293.18 160,-293.18"/>
<text text-anchor="middle" x="191.5" y="-304.8" font-family="Times,serif" font-size="14.00">command</text>
</g>
<!-- 140639277666064 -->
<g id="node2" class="node">
<title>140639277666064</title>
<ellipse fill="none" stroke="black" cx="74.5" cy="-439" rx="65.79" ry="18"/>
<text text-anchor="middle" x="74.5" y="-435.3" font-family="Times,serif" font-size="14.00">DATA_FILE</text>
</g>
<!-- 140639277666064&#45;&gt;140639277720144 -->
<g id="edge5" class="edge">
<title>140639277666064&#45;&gt;140639277720144</title>
<path fill="none" stroke="black" d="M90.7,-421.21C102.91,-408.55 119.82,-391.03 133.44,-376.91"/>
<polygon fill="black" stroke="black" points="136.19,-379.1 140.61,-369.47 131.15,-374.24 136.19,-379.1"/>
<text text-anchor="middle" x="143" y="-391.8" font-family="Times,serif" font-size="14.00">fname</text>
</g>
<!-- 140639277720912 -->
<g id="node3" class="node">
<title>140639277720912</title>
<ellipse fill="none" stroke="black" cx="86.5" cy="-192" rx="77.19" ry="18"/>
<text text-anchor="middle" x="86.5" y="-188.3" font-family="Times,serif" font-size="14.00">load_and_split</text>
</g>
<!-- 140639277666064&#45;&gt;140639277720912 -->
<g id="edge6" class="edge">
<title>140639277666064&#45;&gt;140639277720912</title>
<path fill="none" stroke="black" d="M75.34,-420.77C77.4,-378.86 82.66,-271.31 85.16,-220.44"/>
<polygon fill="black" stroke="black" points="88.66,-220.37 85.66,-210.21 81.67,-220.03 88.66,-220.37"/>
<text text-anchor="middle" x="104" y="-304.8" font-family="Times,serif" font-size="14.00">fname</text>
</g>
<!-- 140639277721104 -->
<g id="node6" class="node">
<title>140639277721104</title>
<polygon fill="none" stroke="black" points="173,-123 0,-123 0,-87 173,-87 173,-123"/>
<text text-anchor="middle" x="86.5" y="-101.3" font-family="Times,serif" font-size="14.00">write_to_disk &lt;map&gt;</text>
</g>
<!-- 140639277720912&#45;&gt;140639277721104 -->
<g id="edge7" class="edge">
<title>140639277720912&#45;&gt;140639277721104</title>
<path fill="none" stroke="black" stroke-dasharray="5,2" d="M86.5,-173.8C86.5,-162.16 86.5,-146.55 86.5,-133.24"/>
<polygon fill="black" stroke="black" points="90,-133.18 86.5,-123.18 83,-133.18 90,-133.18"/>
<text text-anchor="middle" x="108.5" y="-144.8" font-family="Times,serif" font-size="14.00">image</text>
</g>
<!-- 140639277720336&#45;&gt;140639277720912 -->
<g id="edge4" class="edge">
<title>140639277720336&#45;&gt;140639277720912</title>
<path fill="none" stroke="black" d="M140.26,-247.53C131.38,-238.52 120.21,-227.19 110.35,-217.19"/>
<polygon fill="black" stroke="black" points="112.65,-214.53 103.13,-209.87 107.66,-219.45 112.65,-214.53"/>
</g>
<!-- 140639277666000 -->
<g id="node5" class="node">
<title>140639277666000</title>
<ellipse fill="none" stroke="black" cx="221.5" cy="-439" rx="63.09" ry="18"/>
<text text-anchor="middle" x="221.5" y="-435.3" font-family="Times,serif" font-size="14.00">DATA_URL</text>
</g>
<!-- 140639277666000&#45;&gt;140639277720144 -->
<g id="edge3" class="edge">
<title>140639277666000&#45;&gt;140639277720144</title>
<path fill="none" stroke="black" d="M208.66,-421.21C199.22,-408.87 186.24,-391.89 175.59,-377.97"/>
<polygon fill="black" stroke="black" points="178.17,-375.58 169.32,-369.76 172.61,-379.83 178.17,-375.58"/>
<text text-anchor="middle" x="204" y="-391.8" font-family="Times,serif" font-size="14.00">url</text>
</g>
<!-- 140639277721552 -->
<g id="node7" class="node">
<title>140639277721552</title>
<ellipse fill="none" stroke="black" cx="86.5" cy="-18" rx="81.49" ry="18"/>
<text text-anchor="middle" x="86.5" y="-14.3" font-family="Times,serif" font-size="14.00">combine_to_gif</text>
</g>
<!-- 140639277721104&#45;&gt;140639277721552 -->
<g id="edge2" class="edge">
<title>140639277721104&#45;&gt;140639277721552</title>
<path fill="none" stroke="black" d="M86.5,-86.8C86.5,-75.16 86.5,-59.55 86.5,-46.24"/>
<polygon fill="black" stroke="black" points="90,-46.18 86.5,-36.18 83,-46.18 90,-46.18"/>
<text text-anchor="middle" x="132" y="-57.8" font-family="Times,serif" font-size="14.00">image_bytes</text>
</g>
</g>
</svg>
