<?xml version="1.0" encoding="UTF-8" standalone="no"?>
<!DOCTYPE svg PUBLIC "-//W3C//DTD SVG 1.1//EN"
 "http://www.w3.org/Graphics/SVG/1.1/DTD/svg11.dtd">
<!-- Generated by graphviz version 2.40.1 (20161225.0304)
 -->
<!-- Title: %3 Pages: 1 -->
<svg width="284pt" height="465pt"
 viewBox="0.00 0.00 283.69 465.00" xmlns="http://www.w3.org/2000/svg" xmlns:xlink="http://www.w3.org/1999/xlink">
<g id="graph0" class="graph" transform="scale(1 1) rotate(0) translate(4 461)">
<title>%3</title>
<polygon fill="#ffffff" stroke="transparent" points="-4,4 -4,-461 279.6886,-461 279.6886,4 -4,4"/>
<!-- 139983431548152 -->
<g id="node1" class="node">
<title>139983431548152</title>
<ellipse fill="none" stroke="#000000" cx="63.0444" cy="-439" rx="63.0888" ry="18"/>
<text text-anchor="middle" x="63.0444" y="-435.3" font-family="Times,serif" font-size="14.00" fill="#000000">DATA_URL</text>
</g>
<!-- 139983431548880 -->
<g id="node5" class="node">
<title>139983431548880</title>
<ellipse fill="none" stroke="#000000" cx="117.0444" cy="-352" rx="53.8905" ry="18"/>
<text text-anchor="middle" x="117.0444" y="-348.3" font-family="Times,serif" font-size="14.00" fill="#000000">curl_cmd</text>
</g>
<!-- 139983431548152&#45;&gt;139983431548880 -->
<g id="edge3" class="edge">
<title>139983431548152&#45;&gt;139983431548880</title>
<path fill="none" stroke="#000000" d="M72.3618,-420.749C77.5726,-410.883 84.3511,-398.5866 91.0444,-388 93.1623,-384.6501 95.478,-381.194 97.8267,-377.8093"/>
<polygon fill="#000000" stroke="#000000" points="100.6911,-379.8208 103.6391,-369.6444 94.9884,-375.7613 100.6911,-379.8208"/>
<text text-anchor="middle" x="101.5444" y="-391.8" font-family="Times,serif" font-size="14.00" fill="#000000">url</text>
</g>
<!-- 139983431598152 -->
<g id="node2" class="node">
<title>139983431598152</title>
<ellipse fill="none" stroke="#000000" cx="123.0444" cy="-265" rx="53.8905" ry="18"/>
<text text-anchor="middle" x="123.0444" y="-261.3" font-family="Times,serif" font-size="14.00" fill="#000000">curl_task</text>
</g>
<!-- 139983431598488 -->
<g id="node7" class="node">
<title>139983431598488</title>
<ellipse fill="none" stroke="#000000" cx="169.0444" cy="-192" rx="77.1866" ry="18"/>
<text text-anchor="middle" x="169.0444" y="-188.3" font-family="Times,serif" font-size="14.00" fill="#000000">load_and_split</text>
</g>
<!-- 139983431598152&#45;&gt;139983431598488 -->
<g id="edge4" class="edge">
<title>139983431598152&#45;&gt;139983431598488</title>
<path fill="none" stroke="#000000" d="M134.1797,-247.3287C139.5799,-238.7589 146.1817,-228.2821 152.1822,-218.7597"/>
<polygon fill="#000000" stroke="#000000" points="155.322,-220.342 157.6921,-210.0157 149.3997,-216.6101 155.322,-220.342"/>
</g>
<!-- 139983431598600 -->
<g id="node3" class="node">
<title>139983431598600</title>
<polygon fill="none" stroke="#000000" points="255.5444,-123 82.5444,-123 82.5444,-87 255.5444,-87 255.5444,-123"/>
<text text-anchor="middle" x="169.0444" y="-101.3" font-family="Times,serif" font-size="14.00" fill="#000000">write_to_disk &lt;map&gt;</text>
</g>
<!-- 139983431598712 -->
<g id="node4" class="node">
<title>139983431598712</title>
<ellipse fill="none" stroke="#000000" cx="169.0444" cy="-18" rx="81.4863" ry="18"/>
<text text-anchor="middle" x="169.0444" y="-14.3" font-family="Times,serif" font-size="14.00" fill="#000000">combine_to_gif</text>
</g>
<!-- 139983431598600&#45;&gt;139983431598712 -->
<g id="edge1" class="edge">
<title>139983431598600&#45;&gt;139983431598712</title>
<path fill="none" stroke="#000000" d="M169.0444,-86.9735C169.0444,-75.1918 169.0444,-59.5607 169.0444,-46.1581"/>
<polygon fill="#000000" stroke="#000000" points="172.5445,-46.0033 169.0444,-36.0034 165.5445,-46.0034 172.5445,-46.0033"/>
<text text-anchor="middle" x="214.5444" y="-57.8" font-family="Times,serif" font-size="14.00" fill="#000000">image_bytes</text>
</g>
<!-- 139983431548880&#45;&gt;139983431598152 -->
<g id="edge6" class="edge">
<title>139983431548880&#45;&gt;139983431598152</title>
<path fill="none" stroke="#000000" d="M116.8804,-333.5614C116.9269,-323.8582 117.1939,-311.7706 118.0444,-301 118.2443,-298.4681 118.505,-295.8425 118.8024,-293.2151"/>
<polygon fill="#000000" stroke="#000000" points="122.2774,-293.6328 120.0802,-283.2683 115.3345,-292.7408 122.2774,-293.6328"/>
<text text-anchor="middle" x="153.0444" y="-304.8" font-family="Times,serif" font-size="14.00" fill="#000000">command</text>
</g>
<!-- 139983431548208 -->
<g id="node6" class="node">
<title>139983431548208</title>
<ellipse fill="none" stroke="#000000" cx="210.0444" cy="-439" rx="65.7887" ry="18"/>
<text text-anchor="middle" x="210.0444" y="-435.3" font-family="Times,serif" font-size="14.00" fill="#000000">DATA_FILE</text>
</g>
<!-- 139983431548208&#45;&gt;139983431548880 -->
<g id="edge2" class="edge">
<title>139983431548208&#45;&gt;139983431548880</title>
<path fill="none" stroke="#000000" d="M178.5341,-423.2037C169.0789,-417.5958 159.092,-410.7309 151.0444,-403 143.7181,-395.962 137.1276,-387.0805 131.743,-378.7094"/>
<polygon fill="#000000" stroke="#000000" points="134.5894,-376.6543 126.3958,-369.9375 128.6123,-380.2979 134.5894,-376.6543"/>
<text text-anchor="middle" x="173.5444" y="-391.8" font-family="Times,serif" font-size="14.00" fill="#000000">fname</text>
</g>
<!-- 139983431548208&#45;&gt;139983431598488 -->
<g id="edge5" class="edge">
<title>139983431548208&#45;&gt;139983431598488</title>
<path fill="none" stroke="#000000" d="M208.8398,-420.8225C206.3322,-386.5266 199.6199,-310.0532 186.0444,-247 184.1091,-238.0112 181.3692,-228.3798 178.653,-219.7286"/>
<polygon fill="#000000" stroke="#000000" points="181.9488,-218.5456 175.5249,-210.1204 175.2926,-220.7127 181.9488,-218.5456"/>
<text text-anchor="middle" x="220.5444" y="-304.8" font-family="Times,serif" font-size="14.00" fill="#000000">fname</text>
</g>
<!-- 139983431598488&#45;&gt;139983431598600 -->
<g id="edge7" class="edge">
<title>139983431598488&#45;&gt;139983431598600</title>
<path fill="none" stroke="#000000" stroke-dasharray="5,2" d="M169.0444,-173.9735C169.0444,-162.1918 169.0444,-146.5607 169.0444,-133.1581"/>
<polygon fill="#000000" stroke="#000000" points="172.5445,-133.0033 169.0444,-123.0034 165.5445,-133.0034 172.5445,-133.0033"/>
<text text-anchor="middle" x="191.0444" y="-144.8" font-family="Times,serif" font-size="14.00" fill="#000000">image</text>
</g>
</g>
</svg>
