<?xml version="1.0" encoding="UTF-8" standalone="no"?>
<!DOCTYPE svg PUBLIC "-//W3C//DTD SVG 1.1//EN"
 "http://www.w3.org/Graphics/SVG/1.1/DTD/svg11.dtd">
<!-- Generated by graphviz version 2.42.3 (20191010.1750)
 -->
<!-- Title: %3 Pages: 1 -->
<svg width="256pt" height="465pt"
 viewBox="0.00 0.00 256.04 465.00" xmlns="http://www.w3.org/2000/svg" xmlns:xlink="http://www.w3.org/1999/xlink">
<g id="graph0" class="graph" transform="scale(1 1) rotate(0) translate(4 461)">
<title>%3</title>
<polygon fill="white" stroke="transparent" points="-4,4 -4,-461 252.04,-461 252.04,4 -4,4"/>
<!-- 139692964902560 -->
<g id="node1" class="node">
<title>139692964902560</title>
<ellipse fill="none" stroke="black" cx="153.19" cy="-192" rx="62.29" ry="18"/>
<text text-anchor="middle" x="153.19" y="-188.3" font-family="Times,serif" font-size="14.00">load_and_split</text>
</g>
<!-- 139692964902896 -->
<g id="node7" class="node">
<title>139692964902896</title>
<polygon fill="none" stroke="black" points="220.69,-123 85.69,-123 85.69,-87 220.69,-87 220.69,-123"/>
<text text-anchor="middle" x="153.19" y="-101.3" font-family="Times,serif" font-size="14.00">write_to_disk &lt;map&gt;</text>
</g>
<!-- 139692964902560&#45;&gt;139692964902896 -->
<g id="edge4" class="edge">
<title>139692964902560&#45;&gt;139692964902896</title>
<path fill="none" stroke="black" stroke-dasharray="5,2" d="M153.19,-173.8C153.19,-162.16 153.19,-146.55 153.19,-133.24"/>
<polygon fill="black" stroke="black" points="156.7,-133.18 153.19,-123.18 149.7,-133.18 156.7,-133.18"/>
<text text-anchor="middle" x="170.19" y="-144.8" font-family="Times,serif" font-size="14.00">image</text>
</g>
<!-- 139692964903424 -->
<g id="node2" class="node">
<title>139692964903424</title>
<ellipse fill="none" stroke="black" cx="153.19" cy="-18" rx="66.89" ry="18"/>
<text text-anchor="middle" x="153.19" y="-14.3" font-family="Times,serif" font-size="14.00">combine_to_gif</text>
</g>
<!-- 139692964901840 -->
<g id="node3" class="node">
<title>139692964901840</title>
<ellipse fill="none" stroke="black" cx="112.19" cy="-352" rx="44.39" ry="18"/>
<text text-anchor="middle" x="112.19" y="-348.3" font-family="Times,serif" font-size="14.00">curl_cmd</text>
</g>
<!-- 139692964901936 -->
<g id="node4" class="node">
<title>139692964901936</title>
<ellipse fill="none" stroke="black" cx="116.19" cy="-265" rx="42.79" ry="18"/>
<text text-anchor="middle" x="116.19" y="-261.3" font-family="Times,serif" font-size="14.00">curl_task</text>
</g>
<!-- 139692964901840&#45;&gt;139692964901936 -->
<g id="edge3" class="edge">
<title>139692964901840&#45;&gt;139692964901936</title>
<path fill="none" stroke="black" d="M112.26,-333.87C112.37,-324.21 112.62,-311.92 113.19,-301 113.33,-298.44 113.5,-295.78 113.69,-293.12"/>
<polygon fill="black" stroke="black" points="117.19,-293.32 114.51,-283.07 110.21,-292.76 117.19,-293.32"/>
<text text-anchor="middle" x="140.69" y="-304.8" font-family="Times,serif" font-size="14.00">command</text>
</g>
<!-- 139692964901936&#45;&gt;139692964902560 -->
<g id="edge5" class="edge">
<title>139692964901936&#45;&gt;139692964902560</title>
<path fill="none" stroke="black" d="M124.96,-247.17C129.32,-238.81 134.69,-228.51 139.57,-219.14"/>
<polygon fill="black" stroke="black" points="142.71,-220.68 144.23,-210.2 136.51,-217.45 142.71,-220.68"/>
</g>
<!-- 139692964900976 -->
<g id="node5" class="node">
<title>139692964900976</title>
<ellipse fill="none" stroke="black" cx="57.19" cy="-439" rx="57.39" ry="18"/>
<text text-anchor="middle" x="57.19" y="-435.3" font-family="Times,serif" font-size="14.00">DATA_URL</text>
</g>
<!-- 139692964900976&#45;&gt;139692964901840 -->
<g id="edge2" class="edge">
<title>139692964900976&#45;&gt;139692964901840</title>
<path fill="none" stroke="black" d="M67.34,-421.21C73.3,-411.45 81.05,-398.95 88.19,-388 90.29,-384.79 92.53,-381.43 94.76,-378.13"/>
<polygon fill="black" stroke="black" points="97.81,-379.86 100.56,-369.63 92.03,-375.92 97.81,-379.86"/>
<text text-anchor="middle" x="96.19" y="-391.8" font-family="Times,serif" font-size="14.00">url</text>
</g>
<!-- 139692964901072 -->
<g id="node6" class="node">
<title>139692964901072</title>
<ellipse fill="none" stroke="black" cx="190.19" cy="-439" rx="57.69" ry="18"/>
<text text-anchor="middle" x="190.19" y="-435.3" font-family="Times,serif" font-size="14.00">DATA_FILE</text>
</g>
<!-- 139692964901072&#45;&gt;139692964902560 -->
<g id="edge7" class="edge">
<title>139692964901072&#45;&gt;139692964902560</title>
<path fill="none" stroke="black" d="M189.13,-421C186.84,-387.47 180.6,-310.56 168.19,-247 166.47,-238.17 164.04,-228.68 161.63,-220.16"/>
<polygon fill="black" stroke="black" points="164.93,-218.96 158.76,-210.35 158.21,-220.93 164.93,-218.96"/>
<text text-anchor="middle" x="195.69" y="-304.8" font-family="Times,serif" font-size="14.00">fname</text>
</g>
<!-- 139692964901072&#45;&gt;139692964901840 -->
<g id="edge6" class="edge">
<title>139692964901072&#45;&gt;139692964901840</title>
<path fill="none" stroke="black" d="M164.61,-422.77C156.53,-417.2 147.95,-410.42 141.19,-403 134.72,-395.88 129.03,-387.08 124.44,-378.85"/>
<polygon fill="black" stroke="black" points="127.5,-377.15 119.74,-369.93 121.3,-380.41 127.5,-377.15"/>
<text text-anchor="middle" x="158.69" y="-391.8" font-family="Times,serif" font-size="14.00">fname</text>
</g>
<!-- 139692964902896&#45;&gt;139692964903424 -->
<g id="edge1" class="edge">
<title>139692964902896&#45;&gt;139692964903424</title>
<path fill="none" stroke="black" d="M153.19,-86.8C153.19,-75.16 153.19,-59.55 153.19,-46.24"/>
<polygon fill="black" stroke="black" points="156.7,-46.18 153.19,-36.18 149.7,-46.18 156.7,-46.18"/>
<text text-anchor="middle" x="188.19" y="-57.8" font-family="Times,serif" font-size="14.00">image_bytes</text>
</g>
</g>
</svg>
