<?xml version="1.0" encoding="UTF-8" standalone="no"?>
<!DOCTYPE svg PUBLIC "-//W3C//DTD SVG 1.1//EN"
 "http://www.w3.org/Graphics/SVG/1.1/DTD/svg11.dtd">
<!-- Generated by graphviz version 2.46.1 (20210222.2046)
 -->
<!-- Pages: 1 -->
<svg width="278pt" height="465pt"
 viewBox="0.00 0.00 277.64 465.00" xmlns="http://www.w3.org/2000/svg" xmlns:xlink="http://www.w3.org/1999/xlink">
<g id="graph0" class="graph" transform="scale(1 1) rotate(0) translate(4 461)">
<polygon fill="white" stroke="transparent" points="-4,4 -4,-461 273.64,-461 273.64,4 -4,4"/>
<!-- 140560330071008 -->
<g id="node1" class="node">
<title>140560330071008</title>
<ellipse fill="none" stroke="black" cx="153.5" cy="-265" rx="51.99" ry="18"/>
<text text-anchor="middle" x="153.5" y="-261.3" font-family="Times-Roman" font-size="14.00">curl_task</text>
</g>
<!-- 140560330071536 -->
<g id="node6" class="node">
<title>140560330071536</title>
<ellipse fill="none" stroke="black" cx="85.5" cy="-192" rx="77.19" ry="18"/>
<text text-anchor="middle" x="85.5" y="-188.3" font-family="Times-Roman" font-size="14.00">load_and_split</text>
</g>
<!-- 140560330071008&#45;&gt;140560330071536 -->
<g id="edge1" class="edge">
<title>140560330071008&#45;&gt;140560330071536</title>
<path fill="none" stroke="black" d="M137.73,-247.53C129.1,-238.52 118.25,-227.19 108.67,-217.19"/>
<polygon fill="black" stroke="black" points="111.1,-214.67 101.66,-209.87 106.05,-219.51 111.1,-214.67"/>
</g>
<!-- 140560330071968 -->
<g id="node2" class="node">
<title>140560330071968</title>
<polygon fill="none" stroke="black" points="171,-123 0,-123 0,-87 171,-87 171,-123"/>
<text text-anchor="middle" x="85.5" y="-101.3" font-family="Times-Roman" font-size="14.00">write_to_disk &lt;map&gt;</text>
</g>
<!-- 140560330080512 -->
<g id="node3" class="node">
<title>140560330080512</title>
<ellipse fill="none" stroke="black" cx="85.5" cy="-18" rx="81.49" ry="18"/>
<text text-anchor="middle" x="85.5" y="-14.3" font-family="Times-Roman" font-size="14.00">combine_to_gif</text>
</g>
<!-- 140560330071968&#45;&gt;140560330080512 -->
<g id="edge3" class="edge">
<title>140560330071968&#45;&gt;140560330080512</title>
<path fill="none" stroke="black" d="M85.5,-86.8C85.5,-75.16 85.5,-59.55 85.5,-46.24"/>
<polygon fill="black" stroke="black" points="89,-46.18 85.5,-36.18 82,-46.18 89,-46.18"/>
<text text-anchor="middle" x="131.5" y="-57.8" font-family="Times-Roman" font-size="14.00">image_bytes</text>
</g>
<!-- 140560330070960 -->
<g id="node4" class="node">
<title>140560330070960</title>
<ellipse fill="none" stroke="black" cx="154.5" cy="-352" rx="52.79" ry="18"/>
<text text-anchor="middle" x="154.5" y="-348.3" font-family="Times-Roman" font-size="14.00">curl_cmd</text>
</g>
<!-- 140560330070960&#45;&gt;140560330071008 -->
<g id="edge7" class="edge">
<title>140560330070960&#45;&gt;140560330071008</title>
<path fill="none" stroke="black" d="M154.3,-333.8C154.16,-322.16 153.98,-306.55 153.82,-293.24"/>
<polygon fill="black" stroke="black" points="157.32,-293.13 153.7,-283.18 150.32,-293.22 157.32,-293.13"/>
<text text-anchor="middle" x="191" y="-304.8" font-family="Times-Roman" font-size="14.00">command</text>
</g>
<!-- 140560330069808 -->
<g id="node5" class="node">
<title>140560330069808</title>
<ellipse fill="none" stroke="black" cx="210.5" cy="-439" rx="59.29" ry="18"/>
<text text-anchor="middle" x="210.5" y="-435.3" font-family="Times-Roman" font-size="14.00">DATA_URL</text>
</g>
<!-- 140560330069808&#45;&gt;140560330070960 -->
<g id="edge5" class="edge">
<title>140560330069808&#45;&gt;140560330070960</title>
<path fill="none" stroke="black" d="M199.44,-421.21C191.38,-408.98 180.34,-392.21 171.21,-378.36"/>
<polygon fill="black" stroke="black" points="173.97,-376.18 165.54,-369.76 168.12,-380.03 173.97,-376.18"/>
<text text-anchor="middle" x="196" y="-391.8" font-family="Times-Roman" font-size="14.00">url</text>
</g>
<!-- 140560330071536&#45;&gt;140560330071968 -->
<g id="edge2" class="edge">
<title>140560330071536&#45;&gt;140560330071968</title>
<path fill="none" stroke="black" stroke-dasharray="5,2" d="M85.5,-173.8C85.5,-162.16 85.5,-146.55 85.5,-133.24"/>
<polygon fill="black" stroke="black" points="89,-133.18 85.5,-123.18 82,-133.18 89,-133.18"/>
<text text-anchor="middle" x="108.5" y="-144.8" font-family="Times-Roman" font-size="14.00">image</text>
</g>
<!-- 140560330069904 -->
<g id="node7" class="node">
<title>140560330069904</title>
<ellipse fill="none" stroke="black" cx="73.5" cy="-439" rx="59.59" ry="18"/>
<text text-anchor="middle" x="73.5" y="-435.3" font-family="Times-Roman" font-size="14.00">DATA_FILE</text>
</g>
<!-- 140560330069904&#45;&gt;140560330070960 -->
<g id="edge6" class="edge">
<title>140560330069904&#45;&gt;140560330070960</title>
<path fill="none" stroke="black" d="M89.12,-421.61C101.22,-408.91 118.16,-391.13 131.77,-376.86"/>
<polygon fill="black" stroke="black" points="134.57,-378.99 138.93,-369.34 129.5,-374.16 134.57,-378.99"/>
<text text-anchor="middle" x="143" y="-391.8" font-family="Times-Roman" font-size="14.00">fname</text>
</g>
<!-- 140560330069904&#45;&gt;140560330071536 -->
<g id="edge4" class="edge">
<title>140560330069904&#45;&gt;140560330071536</title>
<path fill="none" stroke="black" d="M74.34,-420.77C76.4,-378.86 81.66,-271.31 84.16,-220.44"/>
<polygon fill="black" stroke="black" points="87.66,-220.37 84.66,-210.21 80.67,-220.03 87.66,-220.37"/>
<text text-anchor="middle" x="104" y="-304.8" font-family="Times-Roman" font-size="14.00">fname</text>
</g>
</g>
</svg>
