<?xml version="1.0" encoding="UTF-8" standalone="no"?>
<!DOCTYPE svg PUBLIC "-//W3C//DTD SVG 1.1//EN"
 "http://www.w3.org/Graphics/SVG/1.1/DTD/svg11.dtd">
<!-- Generated by graphviz version 2.40.1 (20161225.0304)
 -->
<!-- Title: %3 Pages: 1 -->
<svg width="256pt" height="465pt"
 viewBox="0.00 0.00 256.04 465.00" xmlns="http://www.w3.org/2000/svg" xmlns:xlink="http://www.w3.org/1999/xlink">
<g id="graph0" class="graph" transform="scale(1 1) rotate(0) translate(4 461)">
<title>%3</title>
<polygon fill="#ffffff" stroke="transparent" points="-4,4 -4,-461 252.0398,-461 252.0398,4 -4,4"/>
<!-- 140225249664584 -->
<g id="node1" class="node">
<title>140225249664584</title>
<ellipse fill="none" stroke="#000000" cx="128.8449" cy="-265" rx="42.7926" ry="18"/>
<text text-anchor="middle" x="128.8449" y="-261.3" font-family="Times,serif" font-size="14.00" fill="#000000">curl_task</text>
</g>
<!-- 140225249664920 -->
<g id="node6" class="node">
<title>140225249664920</title>
<ellipse fill="none" stroke="#000000" cx="69.8449" cy="-192" rx="62.2891" ry="18"/>
<text text-anchor="middle" x="69.8449" y="-188.3" font-family="Times,serif" font-size="14.00" fill="#000000">load_and_split</text>
</g>
<!-- 140225249664584&#45;&gt;140225249664920 -->
<g id="edge1" class="edge">
<title>140225249664584&#45;&gt;140225249664920</title>
<path fill="none" stroke="#000000" d="M114.8627,-247.7C107.6215,-238.7405 98.6364,-227.6234 90.6023,-217.6829"/>
<polygon fill="#000000" stroke="#000000" points="93.1445,-215.2603 84.1365,-209.6829 87.7003,-219.6604 93.1445,-215.2603"/>
</g>
<!-- 140225249663912 -->
<g id="node2" class="node">
<title>140225249663912</title>
<ellipse fill="none" stroke="#000000" cx="57.8449" cy="-439" rx="57.6901" ry="18"/>
<text text-anchor="middle" x="57.8449" y="-435.3" font-family="Times,serif" font-size="14.00" fill="#000000">DATA_FILE</text>
</g>
<!-- 140225249664528 -->
<g id="node4" class="node">
<title>140225249664528</title>
<ellipse fill="none" stroke="#000000" cx="129.8449" cy="-352" rx="44.393" ry="18"/>
<text text-anchor="middle" x="129.8449" y="-348.3" font-family="Times,serif" font-size="14.00" fill="#000000">curl_cmd</text>
</g>
<!-- 140225249663912&#45;&gt;140225249664528 -->
<g id="edge6" class="edge">
<title>140225249663912&#45;&gt;140225249664528</title>
<path fill="none" stroke="#000000" d="M72.4151,-421.3943C82.9261,-408.6935 97.2691,-391.3624 108.9916,-377.1977"/>
<polygon fill="#000000" stroke="#000000" points="111.8627,-379.2181 115.542,-369.2827 106.4699,-374.7551 111.8627,-379.2181"/>
<text text-anchor="middle" x="116.3449" y="-391.8" font-family="Times,serif" font-size="14.00" fill="#000000">fname</text>
</g>
<!-- 140225249663912&#45;&gt;140225249664920 -->
<g id="edge3" class="edge">
<title>140225249663912&#45;&gt;140225249664920</title>
<path fill="none" stroke="#000000" d="M58.7273,-420.8375C60.7991,-378.1929 65.9869,-271.4108 68.4736,-220.2247"/>
<polygon fill="#000000" stroke="#000000" points="71.9717,-220.3472 68.9612,-210.1891 64.98,-220.0075 71.9717,-220.3472"/>
<text text-anchor="middle" x="82.3449" y="-304.8" font-family="Times,serif" font-size="14.00" fill="#000000">fname</text>
</g>
<!-- 140225249734728 -->
<g id="node3" class="node">
<title>140225249734728</title>
<polygon fill="none" stroke="#000000" points="137.3449,-123 2.3449,-123 2.3449,-87 137.3449,-87 137.3449,-123"/>
<text text-anchor="middle" x="69.8449" y="-101.3" font-family="Times,serif" font-size="14.00" fill="#000000">write_to_disk &lt;map&gt;</text>
</g>
<!-- 140225249734840 -->
<g id="node7" class="node">
<title>140225249734840</title>
<ellipse fill="none" stroke="#000000" cx="69.8449" cy="-18" rx="66.8882" ry="18"/>
<text text-anchor="middle" x="69.8449" y="-14.3" font-family="Times,serif" font-size="14.00" fill="#000000">combine_to_gif</text>
</g>
<!-- 140225249734728&#45;&gt;140225249734840 -->
<g id="edge5" class="edge">
<title>140225249734728&#45;&gt;140225249734840</title>
<path fill="none" stroke="#000000" d="M69.8449,-86.9735C69.8449,-75.1918 69.8449,-59.5607 69.8449,-46.1581"/>
<polygon fill="#000000" stroke="#000000" points="73.345,-46.0033 69.8449,-36.0034 66.345,-46.0034 73.345,-46.0033"/>
<text text-anchor="middle" x="104.8449" y="-57.8" font-family="Times,serif" font-size="14.00" fill="#000000">image_bytes</text>
</g>
<!-- 140225249664528&#45;&gt;140225249664584 -->
<g id="edge7" class="edge">
<title>140225249664528&#45;&gt;140225249664584</title>
<path fill="none" stroke="#000000" d="M129.6377,-333.9735C129.5022,-322.1918 129.3226,-306.5607 129.1685,-293.1581"/>
<polygon fill="#000000" stroke="#000000" points="132.6666,-292.9624 129.0518,-283.0034 125.6671,-293.043 132.6666,-292.9624"/>
<text text-anchor="middle" x="157.3449" y="-304.8" font-family="Times,serif" font-size="14.00" fill="#000000">command</text>
</g>
<!-- 140225249663856 -->
<g id="node5" class="node">
<title>140225249663856</title>
<ellipse fill="none" stroke="#000000" cx="190.8449" cy="-439" rx="57.3905" ry="18"/>
<text text-anchor="middle" x="190.8449" y="-435.3" font-family="Times,serif" font-size="14.00" fill="#000000">DATA_URL</text>
</g>
<!-- 140225249663856&#45;&gt;140225249664528 -->
<g id="edge4" class="edge">
<title>140225249663856&#45;&gt;140225249664528</title>
<path fill="none" stroke="#000000" d="M178.5006,-421.3943C169.7364,-408.8944 157.8275,-391.9096 147.9853,-377.8724"/>
<polygon fill="#000000" stroke="#000000" points="150.7775,-375.7581 142.1708,-369.5796 145.046,-379.7768 150.7775,-375.7581"/>
<text text-anchor="middle" x="172.8449" y="-391.8" font-family="Times,serif" font-size="14.00" fill="#000000">url</text>
</g>
<!-- 140225249664920&#45;&gt;140225249734728 -->
<g id="edge2" class="edge">
<title>140225249664920&#45;&gt;140225249734728</title>
<path fill="none" stroke="#000000" stroke-dasharray="5,2" d="M69.8449,-173.9735C69.8449,-162.1918 69.8449,-146.5607 69.8449,-133.1581"/>
<polygon fill="#000000" stroke="#000000" points="73.345,-133.0033 69.8449,-123.0034 66.345,-133.0034 73.345,-133.0033"/>
<text text-anchor="middle" x="86.8449" y="-144.8" font-family="Times,serif" font-size="14.00" fill="#000000">image</text>
</g>
</g>
</svg>
